<svg width="305" xmlns="http://www.w3.org/2000/svg" height="302" viewBox="534 313 305 302" fill="none"><g data-testid="Path"><path d="m673 597 20 18-3-17 23 16-8-24 28 20-9-18 28 11-9-15 27 6-12-15 28 4-13-13 27-1-14-12 27-3-15-9 24-9-15-6 22-11-16-5 21-13-17-4 21-16-16-1 17-18h-17l14-20-14 3 10-23-16 5 9-23-13 7 3-23-13 9 1-25-16 14 5-28-12 9-3-20-10 9-9-22-6 16-11-25-5 17-12-22-4 15-16-20-1 15-18-17v16l-19-15 2 15-24-16 7 19-21-9 6 14-25-6 11 13-29-4 13 13h-28l17 12-30 2 20 10-31 4 15 9-26 11 30 5-34 13 24 1-29 18 28-1-28 21 17-2-16 23 18-5-13 24 16-6-10 25 14-7-5 27 14-11-2 27 13-13v29l13-18 2 32 10-16 8 28 7-19 11 26 5-16 16 24 1-18 20 22v-17Z" style="fill: rgb(0, 0, 0); fill-opacity: 1;" class="fills"/><g class="strokes"><g class="inner-stroke-shape"><defs><clipPath id="b"><use href="#a"/></clipPath><path d="m673 597 20 18-3-17 23 16-8-24 28 20-9-18 28 11-9-15 27 6-12-15 28 4-13-13 27-1-14-12 27-3-15-9 24-9-15-6 22-11-16-5 21-13-17-4 21-16-16-1 17-18h-17l14-20-14 3 10-23-16 5 9-23-13 7 3-23-13 9 1-25-16 14 5-28-12 9-3-20-10 9-9-22-6 16-11-25-5 17-12-22-4 15-16-20-1 15-18-17v16l-19-15 2 15-24-16 7 19-21-9 6 14-25-6 11 13-29-4 13 13h-28l17 12-30 2 20 10-31 4 15 9-26 11 30 5-34 13 24 1-29 18 28-1-28 21 17-2-16 23 18-5-13 24 16-6-10 25 14-7-5 27 14-11-2 27 13-13v29l13-18 2 32 10-16 8 28 7-19 11 26 5-16 16 24 1-18 20 22v-17Z" id="a" style="fill: none; stroke-width: 4; stroke: rgb(0, 0, 0); stroke-opacity: 1;"/></defs><use href="#a" clip-path="url('#b')"/></g></g></g></svg>